<svg width="64" height="64" viewBox="0 0 64 64" fill="none" xmlns="http://www.w3.org/2000/svg">
<path d="M32 61.7818C29.6858 60.7967 18.8157 56.0495 15.2588 53.1748C11.1641 49.8628 9 45.1156 9 39.4456V13.1662C15.5355 9.68855 23.0597 8 32 8C40.9403 8 48.4645 9.69138 55 13.1662V39.4449C55 45.1135 52.8359 49.8593 48.7412 53.1741C45.1843 56.0474 34.3142 60.7931 32 61.7818Z" fill="#1A0000"/>
<path d="M52.1196 14.2334C49.3837 13.9829 46.5416 13.8173 43.6464 13.8173C32.9086 13.8173 21.3966 16.0946 11.8795 24.7065V39.4265C11.8795 44.2218 13.6757 48.2253 17.0903 50.9704C20.1058 53.3935 29.3836 57.5357 31.9999 58.675C34.583 57.5519 43.8368 53.4615 46.9054 50.9697C50.3412 48.1764 52.121 44.2657 52.121 39.4272V14.232M13.8476 37.8937V25.9407H17.6989V38.0635C17.6989 39.142 17.9636 40.7386 19.73 40.7386C20.3705 40.7665 21.0051 40.605 21.5544 40.2743V25.9414H25.4028V42.4392C23.6604 43.5106 21.6396 44.042 19.5955 43.9664C15.781 43.9664 13.8469 41.924 13.8469 37.8944M31.2363 51.6944H27.3808V26.9081C28.9447 25.9623 30.7502 25.4926 32.5767 25.5565C37.1767 25.5565 39.706 29.0001 39.706 34.5441C39.706 40.0995 37.2503 43.9013 32.9716 43.9013C32.3859 43.9118 31.8016 43.8391 31.2363 43.6854V51.6944ZM31.2363 40.5779C31.6378 40.7246 32.0616 40.8007 32.489 40.803C34.7076 40.803 35.767 38.7945 35.767 34.6369C35.767 30.3765 34.8399 28.6144 32.6036 28.6144C32.1343 28.6103 31.6692 28.7036 31.2378 28.8883L31.2363 40.5779ZM40.5779 30.5124C40.5616 27.4389 43.214 25.6293 45.7497 25.5586C47.2592 25.477 48.7516 25.9112 49.9817 26.79V30.0984C49.0688 29.1604 47.8353 28.6018 46.5282 28.5344C45.4362 28.5252 44.2989 28.9994 44.2635 30.3518C44.2267 31.736 45.3619 32.2838 46.7999 33.1118C50.0199 34.9801 50.6427 36.6573 50.5684 38.8759C50.4976 41.3076 48.7991 43.9642 44.9868 43.9642C43.4949 43.9488 42.0331 43.542 40.7477 42.7845V39.2843C41.7703 40.1937 43.066 40.7378 44.4313 40.8313C45.8466 40.8384 46.7758 40.0387 46.7426 38.7125C46.7143 37.5186 46.0299 36.8725 44.3364 35.8873C41.1575 34.0473 40.5857 32.5343 40.5807 30.5089M15.8023 52.5181C11.9029 49.3661 9.84351 44.8368 9.84351 39.4258V13.692C16.0004 10.472 23.4524 8.84076 31.9999 8.84076C40.5474 8.84076 48.0009 10.472 54.1564 13.692V39.4258C54.1564 44.8397 52.097 49.3689 48.199 52.5181C44.6322 55.4027 33.3021 60.3077 31.9999 60.8689C30.6992 60.3098 19.3676 55.4055 15.8009 52.5209L15.8023 52.5181Z" fill="#FCAE00"/>
<path d="M41.9233 51.4759C40.8875 52.5117 39.4025 52.8325 38.0916 52.42L35.7175 54.785C35.5525 54.9592 35.2133 55.0692 34.9658 55.0325L33.8658 54.8859C33.4991 54.84 33.1691 54.4917 33.1141 54.1342L32.9675 53.0342C32.9308 52.7959 33.05 52.4567 33.215 52.2825L35.58 49.9175C35.1766 48.6067 35.4883 47.1217 36.5241 46.0859C38.0091 44.6009 40.4291 44.6009 41.9233 46.0859C43.4083 47.5617 43.4083 49.9817 41.9233 51.4759Z" stroke="#FCAE00" stroke-width="1.5" stroke-miterlimit="10" stroke-linecap="round" stroke-linejoin="round"/>
<path d="M36.5791 53.9233L35.7999 53.135" stroke="#FCAE00" stroke-width="1.5" stroke-miterlimit="10" stroke-linecap="round" stroke-linejoin="round"/>
<path d="M39.2782 48.8083H39.2865" stroke="#FCAE00" stroke-width="2" stroke-linecap="round" stroke-linejoin="round"/>
</svg>
