<svg width={19} height={20} viewBox="0 0 19 20" fill="none" xmlns="http://www.w3.org/2000/svg">
  <g id="Vector">
    <path d="M9.15939 0C9.84935 0 10.4087 0.559329 10.4087 1.24929V5.41359C10.4087 6.10355 9.84935 6.66288 9.15939 6.66288C8.46943 6.66288 7.91011 6.10355 7.91011 5.41359V1.24929C7.91011 0.559329 8.4694 0 9.15939 0Z" fill="#C91A13" />
    <path d="M12.0744 4.11433C12.0682 4.5337 12.2797 4.92637 12.6332 5.15206C15.7733 7.07062 16.7635 11.1715 14.8449 14.3115C12.9263 17.4516 8.82556 18.4418 5.68548 16.5233C2.54539 14.6047 1.55517 10.5039 3.47377 7.36377C4.02197 6.46655 4.77475 5.71178 5.67052 5.1612C6.03012 4.93551 6.24726 4.53968 6.24438 4.11511C6.24629 3.42516 5.68852 2.8643 4.99856 2.86239C4.76159 2.86173 4.5293 2.92849 4.32883 3.0549C0.0306926 5.72463 -1.28937 11.3731 1.38031 15.6712C4.05 19.9693 9.6985 21.2894 13.9966 18.6197C18.2947 15.95 19.6148 10.3015 16.9451 6.00341C16.2019 4.80702 15.193 3.79807 13.9966 3.05494C13.4111 2.68558 12.6371 2.86079 12.2677 3.44628C12.1415 3.64624 12.0745 3.87787 12.0744 4.11433Z" fill="#C91A13" />
  </g>
</svg>
