<svg width={24} height={24} viewBox="0 0 24 24" fill="none" xmlns="http://www.w3.org/2000/svg">
  <g id="vuesax/linear/box-search">
    <g id="box-search">
      <g id="Group">
        <g id="Group_2">
          <path id="Vector" d="M3.17001 7.43994L12 12.5499L20.77 7.46991" stroke="#00857D" strokeWidth="1.5" strokeLinecap="round" strokeLinejoin="round" />
          <path id="Vector_2" d="M12 21.61V12.54" stroke="#00857D" strokeWidth="1.5" strokeLinecap="round" strokeLinejoin="round" />
        </g>
        <path id="Vector_3" d="M21.61 12.83V9.17C21.61 7.79 20.62 6.11002 19.41 5.44002L14.07 2.48C12.93 1.84 11.07 1.84 9.92999 2.48L4.59 5.44002C3.38 6.11002 2.39001 7.79 2.39001 9.17V14.83C2.39001 16.21 3.38 17.89 4.59 18.56L9.92999 21.52C10.5 21.84 11.25 22 12 22C12.75 22 13.5 21.84 14.07 21.52" stroke="#00857D" strokeWidth="1.5" strokeLinecap="round" strokeLinejoin="round" />
      </g>
      <g id="Group_3">
        <path id="Vector_4" d="M19.2 21.4C20.9673 21.4 22.4 19.9673 22.4 18.2C22.4 16.4327 20.9673 15 19.2 15C17.4327 15 16 16.4327 16 18.2C16 19.9673 17.4327 21.4 19.2 21.4Z" stroke="#00857D" strokeWidth="1.5" strokeLinecap="round" strokeLinejoin="round" />
        <path id="Vector_5" d="M23 22L22 21" stroke="#00857D" strokeWidth="1.5" strokeLinecap="round" strokeLinejoin="round" />
      </g>
    </g>
  </g>
</svg>
